<svg width="512" height="512" viewBox="0 0 512 512" fill="none" xmlns="http://www.w3.org/2000/svg">
  <rect width="512" height="512" fill="none"/>
  <circle cx="256" cy="220" r="162" fill="#F8D300"/>
  <path d="M160 356H352V424C352 454.928 326.928 480 296 480H216C185.072 480 160 454.928 160 424V356Z" fill="#0A5D76"/>
  <path d="M200 444H312V480C312 497.673 297.673 512 280 512H232C214.327 512 200 497.673 200 480V444Z" fill="#06495D"/>

  <rect x="70" y="146" width="72" height="28" rx="14" transform="rotate(18 70 146)" fill="#F8D300"/>
  <rect x="34" y="228" width="72" height="28" rx="14" fill="#F8D300"/>
  <rect x="58" y="294" width="72" height="28" rx="14" transform="rotate(-18 58 294)" fill="#F8D300"/>

  <rect x="370" y="170" width="72" height="28" rx="14" transform="rotate(-18 370 170)" fill="#F8D300"/>
  <rect x="406" y="228" width="72" height="28" rx="14" fill="#F8D300"/>
  <rect x="382" y="294" width="72" height="28" rx="14" transform="rotate(18 382 294)" fill="#F8D300"/>

  <path d="M251.472 296.4V274.8C251.472 266.4 252.856 259.2 255.624 253.2C258.392 247.2 263.192 241.736 270.024 236.808L274.2 233.784C279.8 229.704 283.672 225.976 285.816 222.6C287.96 219.224 289.032 214.84 289.032 209.448C289.032 201.144 286.552 194.664 281.592 190.008C276.632 185.352 269.704 183.024 260.808 183.024C251.848 183.024 244.728 185.576 239.448 190.68C234.232 195.72 231.624 202.68 231.624 211.56H195.192C195.192 198.36 198.696 186.984 205.704 177.432C212.776 167.88 222.424 160.56 234.648 155.472C246.936 150.384 260.744 147.84 276.072 147.84C299.656 147.84 318.128 153.152 331.488 163.776C344.912 174.336 351.624 189.032 351.624 207.864C351.624 218.392 348.76 227.912 343.032 236.424C337.304 244.872 327.656 253.8 314.088 263.208C305.192 269.304 299.24 274.584 296.232 279.048C293.224 283.512 291.72 289.296 291.72 296.4H251.472ZM248.304 352.032C248.304 345.584 250.512 340.272 254.928 336.096C259.344 331.92 265.224 329.832 272.568 329.832C279.912 329.832 285.792 331.92 290.208 336.096C294.688 340.272 296.928 345.584 296.928 352.032C296.928 358.352 294.688 363.632 290.208 367.872C285.728 372.048 279.848 374.136 272.568 374.136C265.352 374.136 259.504 372.048 255.024 367.872C250.544 363.632 248.304 358.352 248.304 352.032Z" fill="#0A5D76"/>
</svg>
